<svg width="61" height="61" viewBox="0 0 61 61" xmlns="http://www.w3.org/2000/svg"><path opacity="0.5" fill-rule="evenodd" clip-rule="evenodd" d="M30.5005 58.9556C46.2161 58.9556 58.956 46.2156 58.956 30.5C58.956 14.7844 46.2161 2.04444 30.5005 2.04444C14.7849 2.04444 2.04493 14.7844 2.04493 30.5C2.04493 46.2156 14.7849 58.9556 30.5005 58.9556ZM30.5005 61C47.3452 61 61.0005 47.3447 61.0005 30.5C61.0005 13.6553 47.3452 0 30.5005 0C13.6558 0 0.000488281 13.6553 0.000488281 30.5C0.000488281 47.3447 13.6558 61 30.5005 61Z"></path><g><path d="M25.3916 30.9128H28.0492V41.8538C28.0492 42.0698 28.2242 42.2448 28.4402 42.2448H32.9463C33.1623 42.2448 33.3373 42.0698 33.3373 41.8538V30.9643H36.3925C36.5912 30.9643 36.7583 30.8153 36.781 30.6179L37.245 26.59C37.2577 26.4792 37.2227 26.3682 37.1485 26.2851C37.0743 26.2019 36.9681 26.1543 36.8566 26.1543H33.3375V23.6293C33.3375 22.8682 33.7473 22.4823 34.5557 22.4823C34.6709 22.4823 36.8566 22.4823 36.8566 22.4823C37.0726 22.4823 37.2477 22.3071 37.2477 22.0912V18.3939C37.2477 18.1779 37.0726 18.0029 36.8566 18.0029H33.6856C33.6633 18.0018 33.6136 18 33.5404 18C32.9902 18 31.0777 18.108 29.567 19.4978C27.8932 21.0379 28.1259 22.8819 28.1815 23.2016V26.1542H25.3915C25.1755 26.1542 25.0005 26.3292 25.0005 26.5452V30.5217C25.0005 30.7377 25.1756 30.9128 25.3916 30.9128Z"></path></g></svg>