<svg width="61" height="61" viewBox="0 0 61 61" xmlns="http://www.w3.org/2000/svg"><path opacity="0.5" fill-rule="evenodd" clip-rule="evenodd" d="M30.5 58.9556C46.2156 58.9556 58.9556 46.2156 58.9556 30.5C58.9556 14.7844 46.2156 2.04444 30.5 2.04444C14.7844 2.04444 2.04444 14.7844 2.04444 30.5C2.04444 46.2156 14.7844 58.9556 30.5 58.9556ZM30.5 61C47.3447 61 61 47.3447 61 30.5C61 13.6553 47.3447 0 30.5 0C13.6553 0 0 13.6553 0 30.5C0 47.3447 13.6553 61 30.5 61Z"></path><g><path d="M43.6041 24.8431C43.5416 23.4257 43.3124 22.4512 42.984 21.6068C42.6453 20.7105 42.1241 19.908 41.4413 19.2409C40.7743 18.5634 39.9665 18.037 39.0806 17.7035C38.2313 17.3752 37.2619 17.146 35.8444 17.0835C34.4164 17.0157 33.963 17 30.3411 17C26.7192 17 26.2659 17.0157 24.8431 17.0782C23.4257 17.1407 22.4512 17.3701 21.607 17.6982C20.7105 18.037 19.908 18.5581 19.2409 19.2409C18.5634 19.908 18.0372 20.7158 17.7035 21.6017C17.3752 22.4512 17.146 23.4204 17.0835 24.8378C17.0157 26.2659 17 26.7192 17 30.3411C17 33.963 17.0157 34.4164 17.0782 35.8391C17.1407 37.2566 17.3701 38.2311 17.6984 39.0755C18.0372 39.9718 18.5634 40.7743 19.2409 41.4414C19.908 42.1188 20.7158 42.6453 21.6017 42.9787C22.4512 43.3071 23.4204 43.5363 24.838 43.5988C26.2606 43.6615 26.7141 43.677 30.336 43.677C33.9579 43.677 34.4113 43.6615 35.834 43.5988C37.2515 43.5363 38.226 43.3071 39.0702 42.9787C40.863 42.2856 42.2805 40.8681 42.9736 39.0755C43.3018 38.226 43.5312 37.2566 43.5937 35.8391C43.6562 34.4164 43.6719 33.963 43.6719 30.3411C43.6719 26.7192 43.6666 26.2659 43.6041 24.8431ZM41.2017 35.7349C41.1443 37.0377 40.9255 37.7413 40.7431 38.2103C40.2948 39.3725 39.3725 40.2949 38.2103 40.7431C37.7413 40.9255 37.0326 41.1444 35.7349 41.2016C34.3278 41.2643 33.9058 41.2797 30.3464 41.2797C26.787 41.2797 26.3597 41.2643 24.9577 41.2016C23.6549 41.1444 22.9513 40.9255 22.4823 40.7431C21.904 40.5294 21.3776 40.1906 20.9503 39.7477C20.5073 39.3151 20.1686 38.7939 19.9548 38.2156C19.7724 37.7466 19.5536 37.0377 19.4964 35.7402C19.4337 34.3331 19.4182 33.9109 19.4182 30.3515C19.4182 26.7921 19.4337 26.3648 19.4964 24.963C19.5536 23.6602 19.7724 22.9566 19.9548 22.4876C20.1686 21.9091 20.5073 21.3829 20.9556 20.9554C21.3879 20.5124 21.9091 20.1736 22.4876 19.9601C22.9566 19.7777 23.6655 19.5589 24.963 19.5015C26.3701 19.439 26.7923 19.4233 30.3515 19.4233C33.9162 19.4233 34.3382 19.439 35.7402 19.5015C37.043 19.5589 37.7466 19.7777 38.2156 19.9601C38.7939 20.1736 39.3204 20.5124 39.7476 20.9554C40.1906 21.3879 40.5294 21.9091 40.7431 22.4876C40.9255 22.9566 41.1443 23.6653 41.2017 24.963C41.2642 26.3701 41.2799 26.7921 41.2799 30.3515C41.2799 33.9109 41.2642 34.3278 41.2017 35.7349Z"></path><path d="M30.3411 23.4882C26.5578 23.4882 23.4882 26.5576 23.4882 30.3411C23.4882 34.1247 26.5578 37.1941 30.3411 37.1941C34.1247 37.1941 37.1941 34.1247 37.1941 30.3411C37.1941 26.5576 34.1247 23.4882 30.3411 23.4882ZM30.3411 34.7865C27.8867 34.7865 25.8958 32.7958 25.8958 30.3411C25.8958 27.8865 27.8867 25.8958 30.3411 25.8958C32.7958 25.8958 34.7865 27.8865 34.7865 30.3411C34.7865 32.7958 32.7958 34.7865 30.3411 34.7865Z"></path><path d="M39.0651 23.2172C39.0651 24.1007 38.3488 24.8171 37.4651 24.8171C36.5816 24.8171 35.8652 24.1007 35.8652 23.2172C35.8652 22.3335 36.5816 21.6174 37.4651 21.6174C38.3488 21.6174 39.0651 22.3335 39.0651 23.2172Z"></path></g></svg>