<svg width="198" height="32" viewBox="0 0 198 32" xmlns="http://www.w3.org/2000/svg"><path d="M7.68047 31.3944L9.88539 24.6225H20.6053L22.8102 31.3944H29.541L19.2998 1.6966H11.2054L0.949684 31.3944H7.68047ZM11.4811 19.7212L15.1366 8.48301H15.3687L19.0242 19.7212H11.4811Z"></path><path d="M33.0805 31.3944H39.2601V9.12105H33.0805V31.3944ZM36.1848 6.24988C38.0271 6.24988 39.5357 4.84329 39.5357 3.11769C39.5357 1.40659 38.0271 0 36.1848 0C34.357 0 32.8484 1.40659 32.8484 3.11769C32.8484 4.84329 34.357 6.24988 36.1848 6.24988Z"></path><path d="M44.2102 31.3944H50.3898V18.0246C50.3898 15.5594 51.9565 13.9208 54.0163 13.9208C56.0472 13.9208 57.4107 15.3129 57.4107 17.5026V31.3944H63.4017V17.7926C63.4017 15.4869 64.7218 13.9208 66.9702 13.9208C68.943 13.9208 70.4226 15.1534 70.4226 17.6331V31.3944H76.5877V16.415C76.5877 11.5862 73.7155 8.83103 69.5668 8.83103C66.3029 8.83103 63.7644 10.4986 62.8505 13.0508H62.6184C61.9076 10.4696 59.6301 8.83103 56.5694 8.83103C53.5666 8.83103 51.2892 10.4261 50.3608 13.0508H50.0997V9.12105H44.2102V31.3944Z"></path><path d="M91.5361 31.8294C97.4691 31.8294 101.197 28.3492 101.487 23.2304H95.6558C95.2932 25.6085 93.7265 26.9426 91.6087 26.9426C88.722 26.9426 86.8507 24.521 86.8507 20.2577C86.8507 16.0525 88.7365 13.6453 91.6087 13.6453C93.8716 13.6453 95.3222 15.1389 95.6558 17.3575H101.487C101.226 12.2097 97.324 8.83103 91.5071 8.83103C84.7473 8.83103 80.5696 13.5148 80.5696 20.3447C80.5696 27.1166 84.6748 31.8294 91.5361 31.8294Z"></path><path d="M111.623 18.5176C111.638 15.6464 113.393 13.9643 115.917 13.9643C118.427 13.9643 119.906 15.5739 119.892 18.3146V31.3944H126.071V17.2125C126.086 11.9922 123.011 8.83103 118.369 8.83103C114.989 8.83103 112.726 10.4261 111.71 13.0508H111.449V1.6966H105.444V31.3944H111.623V18.5176Z"></path><path d="M141.089 31.8294C146.601 31.8294 150.314 29.1468 151.185 25.014L145.469 24.637C144.846 26.3336 143.25 27.2181 141.19 27.2181C138.1 27.2181 136.142 25.1735 136.142 21.8528V21.8383H151.315V20.1417C151.315 12.5723 146.731 8.83103 140.842 8.83103C134.285 8.83103 130.035 13.4858 130.035 20.3592C130.035 27.4212 134.227 31.8294 141.089 31.8294ZM136.142 18.0101C136.273 15.4724 138.202 13.4423 140.944 13.4423C143.627 13.4423 145.484 15.3564 145.498 18.0101H136.142Z"></path><path d="M173.887 15.4724C173.336 11.3687 170.028 8.83103 164.4 8.83103C158.699 8.83103 154.942 11.4702 154.956 15.7625C154.942 19.0977 157.045 21.2583 161.397 22.1283L165.256 22.8969C167.199 23.2884 168.084 23.9989 168.113 25.1155C168.084 26.4351 166.648 27.3777 164.487 27.3777C162.282 27.3777 160.817 26.4351 160.44 24.6225L154.362 24.9415C154.942 29.2048 158.568 31.8294 164.472 31.8294C170.246 31.8294 174.38 28.8857 174.394 24.492C174.38 21.2728 172.277 19.3442 167.954 18.4596L163.921 17.6476C161.847 17.198 161.078 16.4875 161.092 15.4144C161.078 14.0803 162.587 13.2103 164.501 13.2103C166.648 13.2103 167.925 14.3849 168.229 15.8205L173.887 15.4724Z"></path><path d="M196.824 15.4724C196.273 11.3687 192.966 8.83103 187.337 8.83103C181.637 8.83103 177.88 11.4702 177.894 15.7625C177.88 19.0977 179.983 21.2583 184.335 22.1283L188.193 22.8969C190.137 23.2884 191.022 23.9989 191.051 25.1155C191.022 26.4351 189.586 27.3777 187.424 27.3777C185.22 27.3777 183.754 26.4351 183.377 24.6225L177.299 24.9415C177.88 29.2048 181.506 31.8294 187.41 31.8294C193.183 31.8294 197.318 28.8857 197.332 24.492C197.318 21.2728 195.214 19.3442 190.891 18.4596L186.859 17.6476C184.784 17.198 184.016 16.4875 184.03 15.4144C184.016 14.0803 185.524 13.2103 187.439 13.2103C189.586 13.2103 190.862 14.3849 191.167 15.8205L196.824 15.4724Z"></path></svg>