<svg width="61" height="61" viewBox="0 0 61 61" xmlns="http://www.w3.org/2000/svg"><path opacity="0.5" fill-rule="evenodd" clip-rule="evenodd" d="M30.5 58.956C46.2156 58.956 58.9556 46.2161 58.9556 30.5005C58.9556 14.7849 46.2156 2.04493 30.5 2.04493C14.7844 2.04493 2.04444 14.7849 2.04444 30.5005C2.04444 46.2161 14.7844 58.956 30.5 58.956ZM30.5 61.0005C47.3447 61.0005 61 47.3452 61 30.5005C61 13.6558 47.3447 0.000488281 30.5 0.000488281C13.6553 0.000488281 0 13.6558 0 30.5005C0 47.3452 13.6553 61.0005 30.5 61.0005Z"></path><g><path d="M41.9254 23.351L44 21.4226V21.0005H36.8132L31.6912 33.3879L25.8639 21.0005H18.3283V21.4226L20.7517 24.2573C20.9878 24.4668 21.1113 24.7731 21.0799 25.0815V36.2215C21.1547 36.6226 21.0203 37.0352 20.73 37.3268L18 40.5415V40.9584H25.7404V40.5363L23.0104 37.3268C22.7147 37.0342 22.5749 36.6289 22.6345 36.2215V26.5858L29.4292 40.9636H30.2189L36.0613 26.5858V38.0394C36.0613 38.3415 36.0613 38.4036 35.8577 38.6015L33.756 40.5773V41.0005H43.9523V40.5784L41.9265 38.651C41.7488 38.5205 41.6567 38.3015 41.6947 38.0889V23.9131C41.6567 23.6994 41.7477 23.4805 41.9254 23.351Z"></path></g></svg>