<svg width="61" height="61" viewBox="0 0 61 61" xmlns="http://www.w3.org/2000/svg"><path opacity="0.5" fill-rule="evenodd" clip-rule="evenodd" d="M30.5 58.9556C46.2156 58.9556 58.9556 46.2156 58.9556 30.5C58.9556 14.7844 46.2156 2.04444 30.5 2.04444C14.7844 2.04444 2.04444 14.7844 2.04444 30.5C2.04444 46.2156 14.7844 58.9556 30.5 58.9556ZM30.5 61C47.3447 61 61 47.3447 61 30.5C61 13.6553 47.3447 0 30.5 0C13.6553 0 0 13.6553 0 30.5C0 47.3447 13.6553 61 30.5 61Z"></path><g><path d="M46 22.6933C44.9587 23.15 43.8492 23.4527 42.6925 23.5997C43.8825 22.8892 44.7908 21.7727 45.2178 20.427C44.1083 21.0885 42.8832 21.5558 41.5777 21.8165C40.5243 20.6948 39.0227 20 37.3848 20C34.2067 20 31.6482 22.5795 31.6482 25.7418C31.6482 26.1968 31.6868 26.6342 31.7812 27.0507C27.009 26.818 22.7863 24.5308 19.9495 21.0465C19.4542 21.9058 19.1638 22.8893 19.1638 23.948C19.1638 25.936 20.1875 27.6982 21.7135 28.7185C20.7912 28.701 19.8865 28.4333 19.12 28.0115C19.12 28.029 19.12 28.0518 19.12 28.0745C19.12 30.864 21.1097 33.181 23.719 33.7148C23.2517 33.8425 22.7425 33.9037 22.214 33.9037C21.8465 33.9037 21.4755 33.8827 21.1272 33.8057C21.871 36.079 23.9815 37.7502 26.491 37.8045C24.538 39.3323 22.0582 40.2528 19.3738 40.2528C18.903 40.2528 18.4515 40.2318 18 40.174C20.5427 41.8137 23.5563 42.75 26.806 42.75C37.369 42.75 43.144 34 43.144 26.4155C43.144 26.1617 43.1353 25.9167 43.123 25.6735C44.2622 24.865 45.2195 23.8553 46 22.6933Z"></path></g></svg>