<svg width="61" height="61" viewBox="0 0 61 61" xmlns="http://www.w3.org/2000/svg"><path opacity="0.5" fill-rule="evenodd" clip-rule="evenodd" d="M30.4998 58.9556C46.2153 58.9556 58.9553 46.2156 58.9553 30.5C58.9553 14.7844 46.2153 2.04444 30.4998 2.04444C14.7842 2.04444 2.0442 14.7844 2.0442 30.5C2.0442 46.2156 14.7842 58.9556 30.4998 58.9556ZM30.4998 61C47.3444 61 60.9998 47.3447 60.9998 30.5C60.9998 13.6553 47.3444 0 30.4998 0C13.6551 0 -0.000244141 13.6553 -0.000244141 30.5C-0.000244141 47.3447 13.6551 61 30.4998 61Z"></path><g><path fill-rule="evenodd" clip-rule="evenodd" d="M42.215 20.6525C43.5229 21.004 44.5543 22.0329 44.9063 23.3381C45.5605 25.7222 45.5353 30.6918 45.5353 30.6918C45.5353 30.6918 45.5353 35.636 44.9065 38.0203C44.5543 39.3253 43.5232 40.3544 42.215 40.7057C39.8255 41.3333 30.2674 41.3333 30.2674 41.3333C30.2674 41.3333 20.7343 41.3333 18.3198 40.6808C17.0117 40.3293 15.9805 39.3002 15.6283 37.9952C14.9995 35.636 14.9995 30.6667 14.9995 30.6667C14.9995 30.6667 14.9995 25.7222 15.6283 23.3381C15.9803 22.0331 17.0368 20.9789 18.3196 20.6276C20.7091 20 30.2672 20 30.2672 20C30.2672 20 39.8255 20 42.215 20.6525ZM35.1722 30.6667L27.2239 35.2345V26.0988L35.1722 30.6667Z"></path></g></svg>